<svg xmlns="http://www.w3.org/2000/svg" width="223" height="69" viewBox="0 0 223 69">
  <g fill="#006938" fill-rule="evenodd" transform="translate(-.118 -.49)">
    <path d="M4.99538697 60.3909613L4.03731405 60.3909613 2.76487346 66.8549429 2.73493369 66.8549429 1.38764365 60.3909613.519390072 60.3909613 2.27086712 68.50032 3.22894003 68.50032 4.50138062 62.1391745 4.5313204 62.1391745 5.80376099 68.50032 6.71692423 68.50032 8.51331095 60.3909613 7.66002726 60.3909613 6.32770711 66.8549429 6.29776733 66.8549429 4.99538697 60.3909613zM13.9473808 63.5788795C13.9473808 62.0363384 13.4982841 60.1852892 11.5821383 60.1852892 9.30671508 60.1852892 9.20192585 62.8443361 9.20192585 64.4750224 9.20192585 66.1497812 9.30671508 68.7059921 11.612078 68.7059921 13.3036755 68.7059921 13.917441 67.3397415 13.917441 65.8559639L13.0791272 65.8559639C13.0042777 66.8255611 12.8545788 67.9567579 11.6270479 67.9567579 9.92048054 67.9567579 10.0701794 65.4446196 10.0701794 64.401568L13.9473808 64.401568 13.9473808 63.5788795zM10.0701794 63.6523338C10.0701794 62.6974275 10.2198783 60.9345234 11.5671684 60.9345234 12.974338 60.9345234 13.0791272 62.6239731 13.0791272 63.6523338L10.0701794 63.6523338zM18.931703 68.50032L20.8777886 68.50032 20.8777886 57.4821696 18.931703 57.4821696 18.931703 68.50032zM24.7250502 63.0353174C24.7250502 62.2567014 24.7250502 61.4633946 25.7579725 61.4633946 26.7310153 61.4633946 26.7310153 62.2567014 26.7310153 63.0353174L26.7310153 65.7972004C26.7310153 66.8108703 26.6561659 67.2515963 25.7579725 67.2515963 24.8148695 67.2515963 24.7250502 66.8108703 24.7250502 65.7972004L24.7250502 63.0353174zM25.7579725 68.720683C28.2729139 68.7647556 28.6920708 67.5307228 28.6771009 64.6513128 28.6621311 61.8159754 28.6471612 59.9943079 25.7579725 59.9943079 22.8238742 59.9943079 22.7939345 61.8159754 22.7789646 64.6513128 22.7639947 67.5307228 23.1981215 68.7647556 25.7579725 68.720683zM31.5962294 68.50032L34.0213514 68.50032 35.967437 60.2146709 33.946502 60.2146709 33.1081882 64.8569849C32.9435194 65.6062192 32.8686699 66.9137063 32.8387302 67.3103597L32.8087904 67.3103597C32.7788506 66.9137063 32.7040012 65.6062192 32.5393324 64.8569849L31.7159885 60.2146709 29.620204 60.2146709 31.5962294 68.50032zM36.9105401 65.2389475C36.8656304 67.6776314 37.7787936 68.720683 40.024277 68.720683 42.0152723 68.720683 42.7937065 67.5454136 42.7188571 65.6943644L40.7727715 65.6943644C40.8027113 66.7374159 40.5931328 67.2515963 39.8745781 67.2515963 39.2907524 67.2515963 38.8715955 67.0459241 38.8566257 65.9588L38.8566257 64.7541489 42.7487969 64.7541489 42.7487969 63.637643C42.7487969 61.3752494 42.464369 59.9943079 39.754819 59.9943079 37.8386732 59.9943079 36.8207207 61.1108138 36.9105401 63.0646991L36.9105401 65.2389475zM38.8566257 63.2850621L38.8566257 62.9471722C38.8566257 62.197938 38.811716 61.4633946 39.7847588 61.4633946 40.563193 61.4633946 40.7877414 61.7278302 40.8027113 62.5652096L40.8027113 63.2850621 38.8566257 63.2850621zM49.9343437 67.8686127C49.7097954 67.9273762 49.4403374 67.9714488 49.215789 67.8833036 48.811602 67.8098492 48.7816623 67.3985049 48.7816623 67.1193785L48.7816623 61.1401955 49.9343437 61.1401955 49.9343437 60.3909613 48.7816623 60.3909613 48.7816623 58.0110408 47.9134087 58.0110408 47.9134087 60.3909613 47.1649142 60.3909613 47.1649142 61.1401955 47.9134087 61.1401955 47.9134087 67.2075237C47.9134087 67.9861396 48.0481377 68.3534113 48.811602 68.6178469 49.1109998 68.7059921 49.6349459 68.6178469 49.9343437 68.5737743L49.9343437 67.8686127zM52.0594171 68.50032L52.0594171 62.1391745C52.4037246 61.4487037 53.0025202 60.9345234 53.8108942 60.9345234 54.9935154 60.9345234 55.0833348 61.8453572 55.0833348 62.7855727L55.0833348 68.50032 55.9515884 68.50032 55.9515884 62.6239731C55.9515884 62.0657202 55.9515884 61.3605585 55.592311 60.8904508 55.2180638 60.3321978 54.4995091 60.1412166 53.8558039 60.1852892 53.1522191 60.2146709 52.4636041 60.5084882 52.0893569 61.1108138L52.0594171 61.1108138 52.0594171 57.4821696 51.1911636 57.4821696 51.1911636 68.50032 52.0594171 68.50032zM58.1222223 68.50032L58.9904759 68.50032 58.9904759 60.3909613 58.1222223 60.3909613 58.1222223 68.50032zM58.0623427 58.877802L59.0653253 58.877802 59.0653253 57.4821696 58.0623427 57.4821696 58.0623427 58.877802zM60.8766819 62.521137C60.996441 64.7100763 64.5892145 64.2840411 64.5892145 66.4289077 64.5892145 67.280978 64.0802382 67.9567579 63.167075 67.9567579 62.1042128 67.9567579 61.6551162 67.2956689 61.5802667 66.2966899L60.6970433 66.2966899C60.6970433 67.839231 61.4904474 68.7059921 63.1071954 68.7059921 64.5443048 68.7059921 65.457468 67.9126853 65.457468 66.4729803 65.457468 64.739458 64.2149672 64.1224416 62.7479181 63.4613525 62.1790623 63.2409895 61.7449355 62.8737179 61.7449355 62.2273197 61.7449355 61.4340129 62.1491225 60.9345234 62.9724664 60.9345234 63.8856297 60.9345234 64.3646661 61.6103033 64.3946059 62.4623736L65.2478896 62.4623736C65.2478896 61.0667412 64.4245457 60.1852892 63.0024062 60.1852892 61.4904474 60.1852892 60.7419529 61.0520503 60.8766819 62.521137zM72.7920629 67.9567579C71.1004654 67.9567579 71.1902848 65.3417835 71.1902848 64.298732 71.1902848 63.2116078 71.1753149 60.9345234 72.8519425 60.9345234 74.4986303 60.9345234 74.5136002 63.3732073 74.5136002 64.4750224 74.5136002 65.6356009 74.4836604 67.9567579 72.7920629 67.9567579zM71.1902848 67.7363949L71.2202246 67.7363949C71.6094417 68.4121748 72.1932674 68.7059921 73.0016414 68.7059921 75.217185 68.7059921 75.3818538 66.0469452 75.3818538 64.4162589 75.3818538 62.8737179 75.1722753 60.1852892 73.0764908 60.1852892 72.3130265 60.1852892 71.7292008 60.4937974 71.2202246 61.0520503L71.1902848 61.0520503 71.1902848 57.4821696 70.3220312 57.4821696 70.3220312 68.50032 71.1902848 68.50032 71.1902848 67.7363949zM80.8159236 66.5611255C80.5464656 67.2515963 79.9177302 67.9273762 79.2291153 67.9567579 78.1812231 68.0302122 77.7770361 67.5601045 77.7770361 66.5317438L77.7770361 60.3909613 76.9087825 60.3909613 76.9087825 66.3848351C76.9087825 67.6482497 77.2231502 68.7059921 78.735109 68.7059921 79.6033626 68.7059921 80.2919775 68.4415565 80.8159236 67.7510858L80.8458634 67.7510858 80.8458634 68.50032 81.6841772 68.50032 81.6841772 60.3909613 80.8159236 60.3909613 80.8159236 66.5611255zM83.3158951 62.521137C83.4356542 64.7100763 87.0284276 64.2840411 87.0284276 66.4289077 87.0284276 67.280978 86.5194514 67.9567579 85.6062882 67.9567579 84.543426 67.9567579 84.0943293 67.2956689 84.0194799 66.2966899L83.1362564 66.2966899C83.1362564 67.839231 83.9296606 68.7059921 85.5464086 68.7059921 86.983518 68.7059921 87.8966812 67.9126853 87.8966812 66.4729803 87.8966812 64.739458 86.6541804 64.1224416 85.1871313 63.4613525 84.6182755 63.2409895 84.1841487 62.8737179 84.1841487 62.2273197 84.1841487 61.4340129 84.5883357 60.9345234 85.4116796 60.9345234 86.3248428 60.9345234 86.8038793 61.6103033 86.8338191 62.4623736L87.6871028 62.4623736C87.6871028 61.0667412 86.8637589 60.1852892 85.4416194 60.1852892 83.9296606 60.1852892 83.1811661 61.0520503 83.3158951 62.521137zM89.707387 68.50032L90.5756405 68.50032 90.5756405 60.3909613 89.707387 60.3909613 89.707387 68.50032zM89.6475074 58.877802L90.65049 58.877802 90.65049 57.4821696 89.6475074 57.4821696 89.6475074 58.877802zM93.6444678 62.521137C93.6444678 61.6103033 94.5276913 60.9345234 95.3959449 60.9345234 96.5336565 60.9345234 96.6085059 61.6837576 96.6085059 62.6092822L96.6085059 68.50032 97.4767595 68.50032 97.4767595 62.0657202C97.4767595 60.8904508 96.6085059 60.1852892 95.5456438 60.1852892 94.7372698 60.1852892 94.0935645 60.5819426 93.6744076 61.1842681L93.6444678 61.1842681 93.6444678 60.3909613 92.7762143 60.3909613 92.7762143 68.50032 93.6444678 68.50032 93.6444678 62.521137zM103.719203 63.5788795C103.719203 62.0363384 103.270107 60.1852892 101.353961 60.1852892 99.0785376 60.1852892 98.9737484 62.8443361 98.9737484 64.4750224 98.9737484 66.1497812 99.0785376 68.7059921 101.383901 68.7059921 103.075498 68.7059921 103.689264 67.3397415 103.689264 65.8559639L102.85095 65.8559639C102.7761 66.8255611 102.626401 67.9567579 101.39887 67.9567579 99.6923031 67.9567579 99.842002 65.4446196 99.842002 64.401568L103.719203 64.401568 103.719203 63.5788795zM99.842002 63.6523338C99.842002 62.6974275 99.9917009 60.9345234 101.338991 60.9345234 102.746161 60.9345234 102.85095 62.6239731 102.85095 63.6523338L99.842002 63.6523338zM104.931113 62.521137C105.050873 64.7100763 108.643646 64.2840411 108.643646 66.4289077 108.643646 67.280978 108.13467 67.9567579 107.221507 67.9567579 106.158644 67.9567579 105.709548 67.2956689 105.634698 66.2966899L104.751475 66.2966899C104.751475 67.839231 105.544879 68.7059921 107.161627 68.7059921 108.598736 68.7059921 109.5119 67.9126853 109.5119 66.4729803 109.5119 64.739458 108.269399 64.1224416 106.80235 63.4613525 106.233494 63.2409895 105.799367 62.8737179 105.799367 62.2273197 105.799367 61.4340129 106.203554 60.9345234 107.026898 60.9345234 107.940061 60.9345234 108.419098 61.6103033 108.449037 62.4623736L109.302321 62.4623736C109.302321 61.0667412 108.478977 60.1852892 107.056838 60.1852892 105.544879 60.1852892 104.796384 61.0520503 104.931113 62.521137zM110.7544 62.521137C110.87416 64.7100763 114.466933 64.2840411 114.466933 66.4289077 114.466933 67.280978 113.957957 67.9567579 113.044793 67.9567579 111.981931 67.9567579 111.532835 67.2956689 111.457985 66.2966899L110.574762 66.2966899C110.574762 67.839231 111.368166 68.7059921 112.984914 68.7059921 114.422023 68.7059921 115.335187 67.9126853 115.335187 66.4729803 115.335187 64.739458 114.092686 64.1224416 112.625637 63.4613525 112.056781 63.2409895 111.622654 62.8737179 111.622654 62.2273197 111.622654 61.4340129 112.026841 60.9345234 112.850185 60.9345234 113.763348 60.9345234 114.242385 61.6103033 114.272324 62.4623736L115.125608 62.4623736C115.125608 61.0667412 114.302264 60.1852892 112.880125 60.1852892 111.368166 60.1852892 110.619671 61.0520503 110.7544 62.521137zM78.8535664 28.6740178C78.8535664 24.3261598 79.5350218 16.2991978 85.669422 16.2991978 92.0765346 16.2991978 92.5542694 23.9914636 92.5542694 28.6740178L78.8535664 28.6740178zM85.7377628 12.8877229C75.3772977 12.8877229 74.9002139 24.9949137 74.9002139 32.4195502 74.9002139 40.0453877 75.3772977 51.6843869 85.8744444 51.6843869 93.576127 51.6843869 96.3709403 45.4637628 96.3709403 38.7072413L92.5542694 38.7072413C92.2132162 43.1221663 91.5317609 48.2729121 85.9421344 48.2729121 78.172111 48.2729121 78.8535664 36.8344752 78.8535664 32.0854927L96.5076219 32.0854927 96.5076219 28.3393215C96.5076219 21.3158095 94.4626048 12.8877229 85.7377628 12.8877229z"/>
    <path d="M39.1859632 37.3026667C39.1859632 40.0453877 38.9132509 43.1892333 37.2769769 45.5301911 36.1184376 47.202395 34.2777921 48.2729121 31.6880013 48.2729121 27.5979672 48.2729121 26.4394279 45.4637628 26.4394279 41.8510869 26.4394279 37.503229 27.3252549 35.9651591 31.3469482 34.2258881 33.9373899 33.155371 36.5955215 32.2189879 39.1859632 30.8144133L39.1859632 37.3026667zM11.5131466 48.2729121C3.81081312 48.2729121 4.21955618 36.3662836 4.21955618 31.6173011 4.21955618 26.6671176 4.15186625 16.2991978 11.7858589 16.2991978 19.2838209 16.2991978 19.3515108 27.4029384 19.3515108 32.4195502 19.3515108 37.70443 19.2154801 48.2729121 11.5131466 48.2729121zM73.2652416 47.9382158C71.425247 47.6041583 71.2885654 45.7307533 71.2885654 44.4603127L71.2885654 17.2355809 76.5371387 17.2355809 76.5371387 13.824106 71.2885654 13.824106 71.2885654 2.98799464 67.3352129 2.98799464 67.3352129 13.824106 62.223972 13.824106 54.9303816 28.0716922 47.7734728 13.824106 43.3430364 13.824106 52.5449622 31.4161001 44.0986904 47.9375771C43.3202561 47.6871936 43.1393157 47.0478215 43.1393157 45.5972581L43.1393157 22.9209465C43.1393157 20.3123594 43.0026341 17.8372677 41.2986702 15.6968722 39.5263655 13.5564767 36.6638623 12.8877229 33.5279959 12.8877229 26.9848526 12.8877229 23.3042124 16.6332553 23.508584 23.1221475L27.3252549 23.1221475C27.9390203 19.8441679 27.8706795 16.2991978 33.460306 16.2991978 36.9365746 16.2991978 38.2994854 17.7708394 38.8449101 19.9783019 39.1176224 21.5163718 39.2536532 24.5937891 38.9809408 26.131859 38.9132509 26.6000506 38.5721978 27.3358714 37.9590832 27.6035007 34.6188453 29.1422093 31.0065459 30.2120877 27.666308 31.7507964 25.2913025 32.9567249 23.9056115 34.6001859 23.1733886 36.6460488 23.2788287 35.0587964 23.3048633 33.5251976 23.3048633 32.1519209 23.3048633 25.1284089 22.3506956 12.8877229 12.8083674 12.8877229 9.33209881 12.8877229 6.67396716 14.2922976 4.35623778 16.8344563L4.21955618 16.8344563 4.21955618.579331154.266203683.579331154.266203683 50.7480038 4.21955618 50.7480038 4.21955618 47.269462 4.35623778 47.269462C6.1285425 50.3462406 8.78667414 51.6843869 12.4673143 51.6843869 18.7019478 51.6843869 21.3672389 47.0593187 22.4958384 41.7738002 22.5960716 47.3422776 24.331277 51.6843869 31.0065459 51.6843869 34.2777921 51.6843869 37.3453177 50.4133076 39.321994 47.7376535L39.3903348 47.7376535C39.7990778 49.4769245 39.730737 50.4133076 41.5030417 51.0820614 42.9342933 51.3496907 44.5022265 51.4167577 45.8657882 50.8814991L45.8657882 50.7480038 46.9553358 50.7480038 54.9303816 35.0952042 62.9737682 50.7480038 67.4042045 50.7480038 57.3841417 31.4161001 64.966716 17.2355809 67.3352129 17.2355809 67.3352129 44.8614372C67.3352129 48.4064074 67.9489783 50.07925 71.425247 51.2832624 72.7881577 51.6843869 75.1735771 51.2832624 76.5371387 51.0820614L76.5371387 47.8717875C75.5146302 48.1394168 74.2877501 48.3399791 73.2652416 47.9382158zM111.093501 12.8877229C106.730755 12.8206559 104.140964 14.2252306 102.164287 18.104897L102.027606 18.104897 102.027606 13.824106 98.2792757 13.824106 98.2792757 50.7480038 102.232628 50.7480038 102.232628 26.5336223C102.232628 20.7141227 104.959101 16.8344563 111.093501 16.9679516L111.093501 12.8877229M138.561946 47.9382158C136.721301 47.6041583 136.58527 45.7307533 136.58527 44.4603127L136.58527 17.2355809 141.833843 17.2355809 141.833843 13.824106 136.58527 13.824106 136.58527 2.98799464 132.631917 2.98799464 132.631917 13.824106 129.223989 13.824106 129.223989 17.2355809 132.631917 17.2355809 132.631917 44.8614372C132.631917 48.4064074 133.245032 50.07925 136.721301 51.2832624 138.084862 51.6843869 140.470282 51.2832624 141.833843 51.0820614L141.833843 47.8717875C140.811335 48.1394168 139.584455 48.3399791 138.561946 47.9382158M218.58056 13.824106L210.401143 43.7244919 210.265112 43.7244919 202.494438 13.824106 198.336714 13.824106 208.084064 50.8814991C207.53864 53.1560286 206.857184 55.4969863 205.903017 57.6373818 204.607796 60.3130358 201.54027 60.0454066 199.08651 59.9119113L199.08651 63.3233861C200.858815 63.3233861 203.653628 64.126274 206.44779 62.5875653 210.060741 60.3130358 211.355962 54.1594787 212.377819 50.2798123L222.602254 13.824106 218.58056 13.824106"/>
    <path d="M189.272121 16.2991978C195.679233 16.2991978 196.156317 23.9914636 196.156317 28.6740178L182.455614 28.6740178C182.455614 24.3261598 183.137069 16.2991978 189.272121 16.2991978zM196.156317 38.7072413C195.815264 43.1221663 195.133809 48.2729121 189.544833 48.2729121 181.774159 48.2729121 182.455614 36.8344752 182.455614 32.0854927L200.10967 32.0854927 200.10967 28.3393215C200.10967 21.3158095 198.064652 12.8877229 189.33981 12.8877229 178.979345 12.8877229 178.502262 24.9949137 178.502262 32.4195502 178.502262 40.0453877 178.979345 51.6843869 189.476492 51.6843869 197.178826 51.6843869 199.972988 45.4637628 199.972988 38.7072413L196.156317 38.7072413zM118.590812 27.804063C116.001021 26.8006129 114.024345 25.1284089 114.024345 22.1851256 114.024345 18.5730885 115.86434 16.2991978 119.613321 16.2991978 123.771045 16.2991978 125.952743 19.3759763 126.088774 23.2556427L129.973786 23.2556427C129.973786 16.9008846 126.225456 12.8877229 119.750002 12.8877229 112.865806 12.8877229 109.457227 16.8344563 110.070992 23.523272 110.616417 33.4900673 126.975252 31.5502341 126.975252 41.3164671 126.975252 45.1961335 124.657522 48.2729121 120.499798 48.2729121 115.659968 48.2729121 113.615602 45.2625618 113.274549 40.7141416L109.252855 40.7141416C109.252855 47.7376535 112.865806 51.6843869 120.227086 51.6843869 126.770229 51.6843869 130.928604 48.0723498 130.928604 41.5170294 130.928604 33.6235626 125.270637 30.8144133 118.590812 27.804063M152.806772 48.2729121C144.695045 48.2729121 145.104439 36.9686092 145.104439 31.4831671 145.104439 26.3994883 145.513182 16.2991978 152.6024 16.2991978 160.713477 16.2991978 160.849508 26.4665553 160.849508 32.2189879 160.849508 37.7708582 160.781167 48.2729121 152.806772 48.2729121zM153.079484 12.8877229C142.718368 12.8877229 141.151086 23.1221475 141.151086 31.4161001 141.151086 39.9783207 141.423798 51.6843869 152.874462 51.6843869 163.712662 51.6843869 164.80286 40.5135793 164.80286 32.1519209 164.80286 24.0585306 163.644321 12.8877229 153.079484 12.8877229z"/>
    <path d="M180.138536,12.8877229 C175.775789,12.8206559 173.185998,14.2252306 171.209322,18.104897 L171.07264,18.104897 L171.07264,13.824106 L167.323659,13.824106 L167.323659,50.7480038 L171.277012,50.7480038 L171.277012,26.5336223 C171.277012,20.7141227 174.003484,16.8344563 180.138536,16.9679516 L180.138536,12.8877229"/>
  </g>
</svg>
