<?xml version="1.0" encoding="UTF-8"?>
<svg width="29px" height="37px" viewBox="0 0 29 37" version="1.1" xmlns="http://www.w3.org/2000/svg" xmlns:xlink="http://www.w3.org/1999/xlink">
    <!-- Generator: Sketch 48.2 (47327) - http://www.bohemiancoding.com/sketch -->
    <title>Download PDF icon</title>
    <desc>Created with Sketch.</desc>
    <defs></defs>
    <g id="6.-Blog-post" stroke="none" stroke-width="1" fill="none" fill-rule="evenodd" transform="translate(-1000.000000, -737.000000)">
        <g id="Downloads" transform="translate(1000.000000, 646.537109)">
            <g id="Download-PDF-hover-state" transform="translate(0.000000, 91.296875)">
                <g id="Download-PDF-icon">
                    <path d="M28.185478,33.8385914 C28.185478,34.6078969 27.614371,35.2318475 26.9089614,35.2318475 L1.277699,35.2318475 C0.571599593,35.2318475 0,34.6078969 0,33.8385914 L0,1.39219998 C0,0.622798517 0.571599593,0 1.277699,0 L21.5367529,0 L28.185478,7.36826233 L28.185478,33.8385914 Z" id="Shape" fill="#43BEAC"></path>
                    <path d="M21.5357056,0 L21.5044556,5.53253174 C21.5296427,6.7731947 22.1799332,7.40116344 23.3486328,7.37670898 L28.1873169,7.37670898 L21.5357056,0 Z" id="Path-18" fill="#007377"></path>
                    <path d="M9,26.0061847 L10.6494426,26.0061847 C11.0215308,25.9671374 11.3897547,26.1144472 11.6505274,26.4066735 C11.9113001,26.6988998 12.0364415,27.1044635 11.9907475,27.5092736 C12.0353277,27.9362109 11.894361,28.3613309 11.609737,28.6583048 C11.325113,28.9552787 10.929585,29.0899321 10.5406881,29.0222513 L10.0694188,29.0222513 L10.0694188,31 L9,31 L9,26.0061847 Z M10.0694188,28.1619307 L10.3594307,28.1619307 C10.7853857,28.1619307 10.8850772,27.8751571 10.8850772,27.5389399 C10.8850772,27.2027226 10.7672599,26.8665053 10.341305,26.8665053 L10.0694188,26.8665053 L10.0694188,28.1619307 Z" id="Shape" fill="#FFFFFF" fill-rule="nonzero"></path>
                    <path d="M13,26 L14.5352941,26 C15.5588235,26 16,26.6 16,28.34 C16,30.08 15.7970588,31 14.4294118,31 L13,31 L13,26 Z M14.0411765,30.13 L14.3235294,30.13 C14.8088235,30.13 14.9764706,29.91 14.9764706,28.41 C14.9764706,27.19 14.8882353,26.86 14.3411765,26.86 L14.05,26.86 L14.0411765,30.13 Z" id="Shape" fill="#FFFFFF" fill-rule="nonzero"></path>
                    <polygon id="Shape" fill="#FFFFFF" fill-rule="nonzero" points="17 26 20 26 20 26.9823183 18.2145329 26.9823183 18.2145329 27.9646365 19.9065744 27.9646365 19.9065744 28.9469548 18.2145329 28.9469548 18.2145329 31 17 31"></polygon>
                    <rect id="Rectangle-12" fill="#FFFFFF" x="13" y="8" width="2" height="11"></rect>
                    <path d="M14.0308569,19.0308569 L9.96446609,14.9644661" id="Line-8" stroke="#FFFFFF" stroke-width="2" stroke-linecap="square"></path>
                    <path d="M18.0308569,19.0308569 L13.9644661,14.9644661" id="Line-8" stroke="#FFFFFF" stroke-width="2" stroke-linecap="square" transform="translate(16.000000, 17.000000) scale(-1, 1) translate(-16.000000, -17.000000) "></path>
                    <g id="Group-14" transform="translate(9.000000, 8.000000)"></g>
                </g>
            </g>
        </g>
    </g>
</svg>