<?xml version="1.0" encoding="UTF-8"?>
<svg width="13px" height="17px" viewBox="0 0 13 17" version="1.1" xmlns="http://www.w3.org/2000/svg" xmlns:xlink="http://www.w3.org/1999/xlink">
    <!-- Generator: Sketch 48.2 (47327) - http://www.bohemiancoding.com/sketch -->
    <title>Combined Shape</title>
    <desc>Created with Sketch.</desc>
    <defs></defs>
    <g id="8.-Contact-us" stroke="none" stroke-width="1" fill="none" fill-rule="evenodd" transform="translate(-206.000000, -814.000000)">
        <g id="London" transform="translate(206.000000, 589.721191)" fill="#6AC738">
            <g id="View-map" transform="translate(0.681641, 224.000000)">
                <path d="M6,16.3967285 C2,11.874585 0,8.50894369 0,6.29980469 C0,2.98609619 2.6862915,0.299804687 6,0.299804687 C9.3137085,0.299804687 12,2.98609619 12,6.29980469 C12,8.50894369 10,11.874585 6,16.3967285 Z M6,10.7998047 C8.48528137,10.7998047 10.5,8.78508606 10.5,6.29980469 C10.5,3.81452331 8.48528137,1.79980469 6,1.79980469 C3.51471863,1.79980469 1.5,3.81452331 1.5,6.29980469 C1.5,8.78508606 3.51471863,10.7998047 6,10.7998047 Z" id="Combined-Shape"></path>
            </g>
        </g>
    </g>
</svg>